HIERARCHY
ROOT Hips
{
  OFFSET 263.056 91.6644 -274.608
  CHANNELS 6 Xposition Yposition Zposition Zrotation Xrotation Yrotation
  JOINT LeftUpLeg
  {
    OFFSET 8.64259 1.95398 -2.38835
    CHANNELS 3 Zrotation Xrotation Yrotation
    JOINT LeftLeg
    {
      OFFSET 43.7702 0 0
      CHANNELS 3 Zrotation Xrotation Yrotation
      JOINT LeftFoot
      {
        OFFSET 40.6238 0 0
        CHANNELS 3 Zrotation Xrotation Yrotation
        JOINT LeftToeBase
        {
          OFFSET 12.7242 0 0
          CHANNELS 3 Zrotation Xrotation Yrotation
          End Site
          {
            OFFSET 0 0 0
          }
        }
      }
    }
  }
  JOINT RightUpLeg
  {
    OFFSET -8.2249 1.95398 -2.59336
    CHANNELS 3 Zrotation Xrotation Yrotation
    JOINT RightLeg
    {
      OFFSET 43.5653 0 0
      CHANNELS 3 Zrotation Xrotation Yrotation
      JOINT RightFoot
      {
        OFFSET 40.6238 0 0
        CHANNELS 3 Zrotation Xrotation Yrotation
        JOINT RightToeBase
        {
          OFFSET 12.7242 0 0
          CHANNELS 3 Zrotation Xrotation Yrotation
          End Site
          {
            OFFSET 0 0 0
          }
        }
      }
    }
  }
  JOINT Spine
  {
    OFFSET 0.165834 0.87714 6.61349
    CHANNELS 3 Zrotation Xrotation Yrotation
    JOINT Spine1
    {
      OFFSET 7.38963 1.71661e-005 0
      CHANNELS 3 Zrotation Xrotation Yrotation
      JOINT Spine2
      {
        OFFSET 11.9445 1.14441e-005 0
        CHANNELS 3 Zrotation Xrotation Yrotation
        JOINT Spine3
        {
          OFFSET 14.7254 4.19617e-005 0
          CHANNELS 3 Zrotation Xrotation Yrotation
          JOINT Spine4
          {
            OFFSET 10.9679 0 0
            CHANNELS 3 Zrotation Xrotation Yrotation
            JOINT RightShoulder
            {
              OFFSET 2.46616 -1.6653 3.69651
              CHANNELS 3 Zrotation Xrotation Yrotation
              JOINT RightArm
              {
                OFFSET 13.0012 0 0
                CHANNELS 3 Zrotation Xrotation Yrotation
                JOINT RightForeArm
                {
                  OFFSET 28.7848 1.52588e-005 0
                  CHANNELS 3 Zrotation Xrotation Yrotation
                  JOINT RightHand
                  {
                    OFFSET 26.5688 1.52588e-005 0
                    CHANNELS 3 Zrotation Xrotation Yrotation
                    End Site
                    {
                      OFFSET 0 0 0
                    }
                  }
                }
              }
            }
            JOINT LeftShoulder
            {
              OFFSET 2.38034 -1.29275 -3.7523
              CHANNELS 3 Zrotation Xrotation Yrotation
              JOINT LeftArm
              {
                OFFSET 16.3182 6.10352e-005 0
                CHANNELS 3 Zrotation Xrotation Yrotation
                JOINT LeftForeArm
                {
                  OFFSET 27.0901 0 0
                  CHANNELS 3 Zrotation Xrotation Yrotation
                  JOINT LeftHand
                  {
                    OFFSET 24.5451 1.52588e-005 0
                    CHANNELS 3 Zrotation Xrotation Yrotation
                    End Site
                    {
                      OFFSET 0 0 0
                    }
                  }
                }
              }
            }
            JOINT Neck
            {
              OFFSET 5.0226 -0.0266342 0
              CHANNELS 3 Zrotation Xrotation Yrotation
              JOINT Head
              {
                OFFSET 6.69364 2.86102e-005 0
                CHANNELS 3 Zrotation Xrotation Yrotation
                End Site
                {
                  OFFSET 0 0 0
                }
              }
            }
          }
        }
      }
    }
  }
}
MOTION
Frames:	18
Frame Time:	0.0416667
-55.2585 57.4442 -344.928 -45.4458 68.2995 46.2094 121.464 -41.2028 -156.678 -154.744 37.3762 68.9248 86.3404 47.5333 38.8071 -162.023 44.0839 -90.4704 -41.714 -38.7203 -136.142 -101.714 7.71071 47.1279 116.828 -23.3719 3.24064 166.74 -39.1636 -25.6836 1.48754 -2.0617 -101.818 29.9344 -4.51405 -23.4562 18.0657 -5.51417 -23.2529 -2.80173 2.53294 -23.7355 17.2109 2.53294 -23.7355 70.4637 -66.6249 -121.956 114.263 -3.17128 -26.3368 167.262 -58.8692 -47.8971 -2.75244 -5.53661 -54.1721 -8.80314 -39.6291 -163.118 57.96 36.7928 -105.574 -16.3284 51.0596 -40.5511 2.58334 3.98361 74.4627 103.116 -1.0176 -52.6947 -178.98 -56.5438 46.5064 
-55.2726 57.3324 -345.05 -45.407 68.1982 46.1038 122.596 -42.7871 -156.215 -154.471 38.8295 67.9555 85.5601 47.6759 39.7855 -161.826 44.2427 -90.5142 -41.3834 -38.9034 -135.68 -100.938 6.58811 46.2182 117.443 -23.4388 3.10796 169.24 -34.4841 -22.4395 1.47724 -2.03116 -101.862 29.8636 -4.55275 -23.5339 17.9937 -5.55597 -23.3292 -2.86262 2.51713 -23.8207 17.15 2.51713 -23.8207 70.3312 -66.3656 -122.224 114.177 -2.9676 -26.2375 166.87 -59.1996 -48.2428 -2.66059 -5.57484 -54.0642 -9.11129 -39.097 -163.054 57.5307 37.1252 -105.708 -16.3951 51.476 -40.4899 2.81087 4.1556 74.2646 106.459 1.43608 -53.2311 -177.83 -56.8556 44.4681 
-55.3171 57.0209 -345.399 -45.2975 67.9108 45.7964 125.78 -46.9284 -154.808 -153.512 42.6107 65.1998 83.5057 48.0178 42.3439 -161.231 44.7182 -90.6514 -40.4048 -39.3694 -134.347 -98.8048 3.18077 43.8135 119.197 -23.6062 2.75165 173.399 -20.9023 -15.3913 1.44628 -1.94517 -101.986 29.664 -4.66499 -23.7518 17.7906 -5.67691 -23.5427 -3.03434 2.46909 -24.0606 16.9783 2.46907 -24.0606 69.9617 -65.6371 -122.981 113.927 -2.36932 -25.9578 165.625 -60.1635 -49.3452 -2.38095 -5.69186 -53.7554 -10.0262 -37.5636 -162.888 56.2704 38.1291 -106.052 -16.6252 52.6816 -40.2838 3.46096 4.63942 73.6828 5.06988 -39.7754 -91.2668 159.294 -44.8739 87.6906 
-55.401 56.5509 -345.949 -45.1279 67.4649 45.2938 130.706 -52.4764 -152.353 -151.553 47.6161 60.8374 80.6996 48.409 45.8042 -160.195 45.5357 -90.9048 -38.7938 -39.9572 -132.253 -95.7141 -2.66898 40.6259 121.859 -23.7743 2.24921 174.254 -0.814251 -7.49487 1.39318 -1.81469 -102.173 29.3603 -4.84463 -24.0747 17.4819 -5.86941 -23.8585 -3.29607 2.38485 -24.4197 16.7166 2.38484 -24.4198 69.3921 -64.5523 -124.146 113.527 -1.40038 -25.5301 163.209 -61.7522 -51.4943 -1.88456 -5.9011 -53.2732 -11.5448 -35.1479 -162.679 54.2192 39.8402 -106.462 -17.0957 54.6045 -39.8742 4.48488 5.37641 72.7255 -94.0502 2.89812 -132.111 112.851 -22.6486 98.0089 
-55.5378 55.9656 -346.679 -44.9068 66.8882 44.592 137.051 -58.2744 -148.806 -148.413 52.7267 55.0564 77.5796 48.7246 49.6084 -158.625 46.765 -91.3222 -36.5817 -40.5525 -129.52 -92.1492 -10.9582 37.4766 124.99 -23.7834 1.64726 169.075 21.2981 2.11262 1.32894 -1.60766 -102.457 28.8819 -5.08378 -24.5799 16.9954 -6.12868 -24.3545 -3.70832 2.29281 -24.9698 16.3043 2.29282 -24.9698 68.6461 -62.8455 -125.829 112.989 0.01428 -24.8343 158.812 -63.9925 -55.4342 -1.1048 -6.2318 -52.6583 -13.7037 -31.6115 -162.23 51.1348 42.5443 -106.803 -17.9169 57.2154 -39.1569 5.83672 6.30084 71.394 -90.9129 -1.26547 -129.679 113.702 -26.9681 97.9699 
-55.7391 55.3037 -347.564 -44.6408 66.2071 43.6789 144.329 -63.4628 -144.4 -144.256 57.1068 48.2195 74.3936 48.8657 53.4435 -156.364 48.5339 -91.9917 -33.7741 -41.1299 -126.196 -88.5384 -21.2284 35.0341 128.074 -23.5039 0.957208 155.034 41.0945 17.6094 1.07482 -1.21717 -103.989 27.3382 -6.23765 -27.3981 15.3819 -7.38629 -27.1299 -4.67178 1.88808 -27.9912 15.3409 1.88809 -27.9912 68.7922 -58.5595 -127.968 111.196 2.46122 -24.0362 149.981 -67.3783 -63.4956 0.0339281 -6.70451 -51.9862 -20.8441 -22.4043 -165.75 48.1039 51.9678 -110.013 -28.3111 64.7645 -27.2358 7.4629 7.34513 69.9103 -92.2348 -5.36583 -123.09 112.73 -30.5927 97.5977 
-56.0086 54.6001 -348.576 -44.3345 65.4469 42.5347 151.653 -67.5879 -139.887 -139.694 60.3205 41.0371 71.2455 48.7253 57.1734 -153.14 51.0679 -93.0874 -30.2854 -41.6852 -122.183 -84.964 -32.7482 33.7388 130.66 -23.1876 -0.00114822 127.231 53.681 45.3584 1.67851 0.00207165 -89.9284 30.4314 3.32058 -0.925241 19.0352 3.24706 -1.06584 -6.36883 3.5626 0.128121 13.6438 3.5626 0.128124 39.5664 -38.4549 -174.816 101.299 36.6773 15.8344 101.83 -74.974 -110.95 1.142 -7.03349 -51.2704 -60.3286 1.56034 -73.0488 -60.8003 1.93077 -36.9478 11.7431 0.911267 -90.1497 5.78869 5.97966 66.789 -179.808 -71.2191 -176.461 77.5161 -48.512 80.5756 
-56.3395 53.8939 -349.688 -43.9906 64.6322 41.133 157.656 -70.5699 -136.575 -135.643 62.3233 34.4896 68.1615 48.1576 60.7451 -148.415 54.7902 -95.0116 -25.9615 -42.1325 -117.291 -82.3505 -43.3731 33.1128 132.964 -22.3564 -0.191818 91.5715 53.6535 80.2235 3.08965 0.812826 -73.4198 21.9479 14.9984 30.5587 9.99264 16.2648 29.9471 -9.61772 5.76607 33.3085 10.3949 5.76607 33.3086 32.6597 -20.5852 159.496 63.3593 39.618 66.3867 62.7934 -67.546 -148.614 3.5776 -8.13908 -51.0148 -95.0227 15.6885 17.7619 -128.343 -22.4238 -83.5349 70.1209 -63.0183 5.58706 4.98453 4.74866 62.574 28.5677 -29.7449 85.4373 26.6433 -56.4587 44.6846 
-56.7185 53.2319 -350.876 -43.6126 63.7852 39.4486 160.852 -72.5402 -135.941 -132.924 63.3399 29.4467 65.1415 46.9618 64.1148 -140.925 60.5089 -98.8946 -20.7313 -42.2609 -111.433 -79.2555 -53.8878 33.8705 134.33 -22.7143 -1.12392 67.0428 44.0549 103.481 3.38574 0.923301 -74.0271 22.1991 15.3577 29.2285 10.3023 16.5774 28.5966 -9.81904 6.37801 32.1392 10.1936 6.37801 32.1393 28.5398 -24.1906 159.223 58.1398 39.4964 70.2955 48.7128 -54.2504 -158.819 7.16194 -9.85303 -52.4847 -92.7654 15.4158 13.6605 -124.655 -22.5904 -80.6517 62.762 -64.5463 -3.43313 7.73074 6.24203 59.7025 28.6481 -31.7846 88.3288 13.4718 -60.7692 35.5867 
-57.133 52.6603 -352.123 -43.2089 62.9237 37.4663 160.143 -73.6055 -139.1 -131.991 63.6815 26.3955 62.1899 44.8765 67.1948 -126.185 69.5915 -109.31 -14.7453 -41.8 -104.757 -76.8166 -62.5541 34.9187 135.205 -23.2959 -1.55795 53.6778 32.0052 115.218 0.940374 23.4917 -103.888 -18.2539 -2.73068 -30.7768 -30.3482 -3.98539 -30.6492 -49.3805 5.97885 -30.3413 -29.3678 5.97885 -30.3413 -74.2461 75.7597 104.413 -147.95 -65.5657 66.8053 142.04 -20.9628 -33.8835 14.8136 -6.91689 -60.7955 -153.376 -30.6364 -14.9692 135.19 -44.8165 116.169 11.5085 -27.7854 -46.9966 14.1884 9.54498 55.6625 1.90316 -31.6212 28.7396 35.6557 -27.3964 28.4274 
-57.5752 52.2208 -353.41 -42.7927 62.0625 35.1875 155.359 -73.6993 -146.249 -132.957 63.6374 25.4592 59.3174 41.5513 69.8246 -59.3104 80.7445 -172.402 -8.37842 -40.526 -97.6338 -74.7557 -69.6565 36.0779 135.479 -24.2916 -1.89148 45.8643 20.7236 121.171 0.492837 20.2238 -103.361 -14.569 -2.21012 -26.1114 -26.4937 -3.3183 -26.0019 -47.0149 5.47398 -25.6595 -27.0023 5.47397 -25.6595 -42.4228 66.9363 80.4903 -167.658 -60.1931 54.2457 130.226 -43.4934 -33.2346 12.9093 -7.51075 -69.1862 -147.86 -27.8522 -12.5797 123.694 -52.2134 111.595 14.5547 -36.0552 -41.9012 16.4062 9.97826 51.7163 3.64803 -31.158 34.2662 24.3039 -30.1054 26.5285 
-58.0416 51.9523 -354.714 -42.3821 61.2148 32.6367 147.644 -72.597 -156.272 -135.736 63.3874 26.538 56.5758 36.5374 71.6332 33.9521 57.1089 84.5898 -2.11834 -38.3543 -90.5282 -73.3342 -75.3203 36.7696 135.227 -25.4764 -2.21193 40.7584 11.0894 124.276 0.079808 20.3262 -102.85 -14.7929 -2.86605 -25.2991 -26.7005 -3.94146 -25.1633 -47.3281 4.62215 -25.0546 -27.3155 4.62213 -25.0546 -27.4089 66.9337 72.2774 -172.533 -60.4743 53.0827 127.334 -52.3635 -27.6992 10.0862 -7.70313 -75.7035 -148.159 -27.9915 -12.7647 114.675 -52.2549 102.678 16.9828 -43.2097 -37.7071 18.8682 10.3044 47.3813 5.0893 -28.4591 35.8484 15.3357 -30.2186 25.2527 
-58.5324 51.8905 -356.012 -41.9992 60.3919 29.8667 139.056 -70.0672 -167.125 -141.796 64.2018 30.9153 53.3957 28.4602 73.2044 39.9253 22.4746 47.3391 3.60097 -35.3511 -83.8468 -73.3085 -79.7447 35.9787 134.566 -26.6077 -2.59421 37.1225 3.18756 125.868 -0.378045 20.4283 -102.291 -15.0189 -3.59771 -24.4186 -26.9081 -4.63733 -24.2531 -47.6506 3.678 -24.4073 -27.6379 3.67802 -24.4073 -11.6415 66.4504 63.3729 177.932 -59.6038 48.106 134.975 -53.3536 -14.1435 7.95116 -8.63005 -80.1949 -148.609 -28.176 -13.061 103.504 -51.5799 92.0999 21.6267 -52.0958 -31.3716 21.2178 10.3119 42.7303 6.7319 -25.8205 36.8066 7.12263 -29.9934 25.0255 
-59.05 52.0601 -357.278 -41.6652 59.6039 26.9534 131.347 -66.0123 -177.056 -148.247 63.6541 35.9782 50.9993 18.3924 70.9557 37.6577 12.8983 32.2559 8.50353 -31.6992 -77.8441 -76.5812 -83.1017 31.6295 133.627 -27.4898 -3.07484 34.3942 -3.13369 126.625 -0.863855 20.5298 -101.696 -15.2431 -4.37569 -23.4852 -27.1129 -5.37708 -23.2877 -47.9775 2.67392 -23.7251 -27.9649 2.67394 -23.7251 4.21292 65.3955 54.2352 163.815 -56.3583 39.4341 126.857 -34.7007 -46.3609 6.8919 -10.722 -83.3821 -149.074 -28.3563 -13.3748 90.164 -49.641 80.2109 32.473 -62.4904 -19.0979 23.3698 9.98727 37.8244 8.55021 -23.4687 36.713 0.260078 -29.5862 26.4122 
-59.5966 52.4513 -358.466 -41.3967 58.861 23.9919 125.301 -60.482 174.754 -157.399 63.2266 43.8344 47.806 5.52557 65.6162 39.2691 15.9817 31.5621 12.4811 -27.6561 -72.6176 -87.3021 -85.4573 19.5154 132.548 -28.0196 -3.6396 32.3006 -8.07576 126.921 -1.35907 20.634 -101.078 -15.4701 -5.1666 -22.5161 -27.3201 -6.12802 -22.2855 -48.3119 1.64657 -23.0156 -28.2992 1.64656 -23.0156 19.5529 63.7065 45.3328 147.432 -49.0221 29.4673 -144.617 23.6123 167.733 6.85622 -13.9106 -85.58 -149.432 -28.4952 -13.6148 74.9732 -45.7725 67.7626 49.3307 -77.3965 -1.73647 25.2566 9.34719 32.7384 10.5443 -21.7005 35.0848 -4.66263 -29.1647 29.997 
-60.1661 52.9986 -359.496 -41.2024 58.1746 21.0936 121.23 -53.6064 168.682 -172.298 63.1874 57.233 42.964 -9.84464 56.5384 41.2446 22.3405 38.9071 15.5497 -23.5023 -68.1665 -110.333 -86.678 -5.14178 131.46 -28.2348 -4.22106 30.701 -11.8317 126.969 -1.8439 20.7486 -100.451 -15.7125 -5.93423 -21.53 -27.5427 -6.85471 -21.2668 -48.6642 0.635817 -22.2867 -28.6515 0.635814 -22.2867 33.9525 61.3507 37.0363 131.846 -36.3108 21.4452 -162 -0.0760621 179.99 7.54779 -17.3672 -86.8341 -149.579 -28.5696 -13.6988 58.4919 -39.2539 55.8515 -131.996 -75.5311 179.552 26.8809 8.44809 27.5511 12.6381 -20.9605 31.2617 -6.92522 -28.7529 36.5008 
-60.7374 53.6445 -360.259 -41.0792 57.5555 18.3753 119.387 -45.4759 165.011 168.775 61.0715 74.2302 35.8586 -23.3277 42.7645 40.9342 28.2935 52.1049 17.7816 -19.4551 -64.4589 -136.826 -86.6748 -33.3948 130.454 -28.2474 -4.74716 29.525 -14.5513 126.903 -2.29894 20.8846 -99.8284 -15.9899 -6.64244 -20.5453 -27.8009 -7.52177 -20.2515 -49.0515 -0.318488 -21.5459 -29.0388 -0.318471 -21.5459 47.2176 58.3091 29.5545 118.323 -18.5049 16.9068 -177.2 -22.7174 179.998 8.11267 -19.5399 -87.5854 -149.438 -28.5697 -13.5604 41.3209 -29.4899 45.7368 -141.396 -47.6584 179.92 28.3917 7.36857 22.2875 14.4353 -21.9159 24.2836 -5.55376 -27.9333 46.8174 
-61.2854 54.4565 -360.666 -41.0084 57.015 15.9445 119.597 -35.9648 163.537 149.017 55.1209 90.5819 27.7635 -31.6724 26.8271 37.8287 30.8869 68.871 19.2416 -15.6292 -61.4679 -151.178 -85.9638 -49.7488 129.555 -28.0489 -5.21078 28.7437 -16.328 126.813 -2.68475 20.9404 -99.3331 -16.1418 -7.23002 -19.8187 -27.9396 -8.07807 -19.4994 -49.2775 -1.09055 -21.0206 -29.2648 -1.09053 -21.0206 57.1184 55.4319 24.316 106.68 1.7755 16.4763 163.935 -44.711 179.217 7.32563 -19.4086 -89.6041 -149.661 -28.3932 -13.9979 25.894 -17.3474 38.9563 -156.705 -25.5948 179.962 29.9061 6.14119 16.8784 14.2482 -25.7423 13.3428 0.862992 -26.7603 62.0506 
